<svg width="24" height="23" viewBox="0 0 24 23" fill="none" xmlns="http://www.w3.org/2000/svg">
<path d="M18.024 6.67604C18.813 6.67604 19.4527 6.03968 19.4527 5.25469C19.4527 4.4697 18.813 3.83334 18.024 3.83334C17.235 3.83334 16.5954 4.4697 16.5954 5.25469C16.5954 6.03968 17.235 6.67604 18.024 6.67604Z" fill="#91775A"/>
<path d="M11.8766 5.59921C8.6297 5.59921 5.98889 8.22655 5.98889 11.4569C5.98889 14.6872 8.6297 17.3146 11.8766 17.3146C15.1235 17.3146 17.7643 14.6872 17.7643 11.4569C17.7643 8.22655 15.1235 5.59921 11.8766 5.59921ZM11.8766 15.3764C9.712 15.3764 7.93703 13.6104 7.93703 11.4569C7.93703 9.30333 9.712 7.53741 11.8766 7.53741C14.0412 7.53741 15.8162 9.30333 15.8162 11.4569C15.8162 13.6535 14.0412 15.3764 11.8766 15.3764Z" fill="#91775A"/>
<path d="M16.8552 0H6.898C3.26148 0 0.317627 2.92884 0.317627 6.54682V16.4532C0.317627 20.0712 3.26148 23 6.898 23H16.8552C20.4917 23 23.4355 20.0712 23.4355 16.4532V6.54682C23.3922 2.92884 20.4484 0 16.8552 0ZM21.4441 16.4101C21.4441 18.9082 19.3661 20.9757 16.8552 20.9757H6.898C4.38707 20.9757 2.30906 18.9082 2.30906 16.4101V6.50375C2.30906 4.00562 4.38707 1.9382 6.898 1.9382H16.8552C19.3661 1.9382 21.4441 4.00562 21.4441 6.50375V16.4101Z" fill="#91775A"/>
</svg>
