<svg width="14" height="23" viewBox="0 0 11 21" fill="none" xmlns="http://www.w3.org/2000/svg">
<path d="M11 3.53425C10.8764 3.53425 10.794 3.53425 10.7116 3.53425C10.0524 3.53425 9.39326 3.53425 8.73408 3.53425C7.82772 3.57534 7.16854 3.90411 7.12734 5.0137C7.08614 5.83562 7.08614 7.68493 7.08614 7.68493C7.08614 7.68493 9.18727 7.68493 10.0936 7.68493C10.3408 7.68493 10.5468 7.68493 10.8352 7.68493C10.6704 9 10.5056 10.2329 10.3408 11.5068H7.12734V21H3.21348V11.5068H0V7.72603H3.25468V7.43836C3.25468 6.65753 3.25468 5.91781 3.25468 5.17808C3.25468 4.68493 3.29588 4.19178 3.37828 3.73973C3.58427 2.54795 4.11985 1.56164 5.06742 0.863014C5.93258 0.246575 6.88015 0 7.91011 0C8.56929 0 9.26966 -3.98045e-08 9.92884 0.0410959C10.2996 0.0410959 10.6704 0.123288 11 0.123288V3.53425V3.53425Z" fill="#91775A"/>
</svg>
