<svg width="27" height="23" viewBox="0 0 27 23" fill="none" xmlns="http://www.w3.org/2000/svg">
<path d="M27 2.60032C26.0122 3.05435 24.9421 3.34328 23.8308 3.46711C24.9833 2.76542 25.8476 1.69225 26.2592 0.412701C25.189 1.03184 23.9954 1.52715 22.7607 1.7748C21.7317 0.701632 20.2912 0.041219 18.7272 0.041219C15.6403 -5.68079e-05 13.1708 2.47649 13.1708 5.57218C13.1708 6.02621 13.2119 6.43897 13.2942 6.85173C8.68447 6.60407 4.60978 4.37518 1.89331 1.03184C1.39941 1.85735 1.15246 2.8067 1.15246 3.83859C1.15246 5.77855 2.14026 7.47086 3.62197 8.46148C2.71648 8.42021 1.85215 8.17255 1.1113 7.75979C1.1113 7.80107 1.1113 7.80107 1.1113 7.84234C1.1113 10.5253 3.00459 12.7954 5.55642 13.2908C5.10368 13.4146 4.60978 13.4971 4.11587 13.4971C3.74545 13.4971 3.41618 13.4559 3.08691 13.4146C3.78661 15.6022 5.84453 17.212 8.27289 17.2532C6.37959 18.7392 3.9924 19.6472 1.39941 19.6472C0.946666 19.6472 0.493922 19.6059 0.0823364 19.5647C2.55185 21.1332 5.43295 22.0412 8.561 22.0412C18.7683 22.0412 24.3247 13.5797 24.3247 6.23259C24.3247 5.98493 24.3247 5.73728 24.3247 5.5309C25.3125 4.70538 26.2592 3.71477 27 2.60032Z" fill="#91775A"/>
</svg>
